<svg width="370" height="272" viewBox="0 0 370 272" fill="none" xmlns="http://www.w3.org/2000/svg">
<g clip-path="url(#clip0_2025_1234)">
<path d="M367.95 16.1198H2.04953C1.50614 16.1192 0.985181 15.9035 0.600949 15.5201C0.216716 15.1367 0.000593924 14.6169 0 14.0747V2.04506C0.000593924 1.50286 0.216716 0.98303 0.600949 0.599634C0.985181 0.216238 1.50614 0.000591413 2.04953 0H367.95C368.494 0.000592632 369.015 0.216245 369.399 0.599641C369.783 0.983037 369.999 1.50286 370 2.04506V14.0747C369.999 14.6169 369.783 15.1367 369.399 15.5201C369.015 15.9035 368.494 16.1192 367.95 16.1198Z" fill="#272A33"/>
<path d="M11.8942 10.3765C13.5012 10.3765 14.804 9.07661 14.804 7.47306C14.804 5.86951 13.5012 4.56958 11.8942 4.56958C10.2871 4.56958 8.98438 5.86951 8.98438 7.47306C8.98438 9.07661 10.2871 10.3765 11.8942 10.3765Z" fill="#F8FAFC"/>
<path d="M22.9391 10.3765C24.5462 10.3765 25.8489 9.07661 25.8489 7.47306C25.8489 5.86951 24.5462 4.56958 22.9391 4.56958C21.3321 4.56958 20.0293 5.86951 20.0293 7.47306C20.0293 9.07661 21.3321 10.3765 22.9391 10.3765Z" fill="#F8FAFC"/>
<path d="M33.984 10.3765C35.5911 10.3765 36.8938 9.07661 36.8938 7.47306C36.8938 5.86951 35.5911 4.56958 33.984 4.56958C32.377 4.56958 31.0742 5.86951 31.0742 7.47306C31.0742 9.07661 32.377 10.3765 33.984 10.3765Z" fill="#F8FAFC"/>
<path d="M357.129 5.47458H344.411C344.161 5.47403 343.922 5.37475 343.746 5.19851C343.57 5.02228 343.471 4.78349 343.471 4.53453C343.471 4.28557 343.57 4.04679 343.746 3.87055C343.922 3.69432 344.161 3.59503 344.411 3.59448H357.129C357.379 3.5943 357.618 3.69302 357.795 3.86895C357.972 4.04489 358.071 4.28364 358.072 4.53277C358.072 4.7819 357.974 5.02102 357.798 5.19762C357.621 5.37421 357.382 5.47383 357.133 5.47458H357.129Z" fill="#F8FAFC"/>
<path d="M357.129 8.99997H344.411C344.161 8.99942 343.922 8.90014 343.746 8.7239C343.57 8.54767 343.471 8.30888 343.471 8.05993C343.471 7.81097 343.57 7.57218 343.746 7.39594C343.922 7.21971 344.161 7.12042 344.411 7.11987H357.129C357.379 7.11969 357.618 7.21841 357.795 7.39434C357.972 7.57028 358.071 7.80903 358.072 8.05816C358.072 8.30729 357.974 8.54641 357.798 8.72301C357.621 8.8996 357.382 8.99922 357.133 8.99997H357.129Z" fill="#F8FAFC"/>
<path d="M357.129 12.5251H344.411C344.161 12.5251 343.921 12.4261 343.745 12.2498C343.568 12.0735 343.469 11.8344 343.469 11.5851C343.469 11.3358 343.568 11.0966 343.745 10.9204C343.921 10.7441 344.161 10.645 344.411 10.645H357.129C357.379 10.6446 357.619 10.7431 357.796 10.9191C357.973 11.0951 358.073 11.334 358.073 11.5833C358.074 11.8326 357.975 12.0719 357.798 12.2485C357.622 12.4252 357.383 12.5247 357.133 12.5251H357.129Z" fill="#F8FAFC"/>
<path d="M104.332 239.048C105.678 228.245 112.388 217.601 122.713 214.085C118.641 225.205 118.642 237.403 122.716 248.521C124.302 252.804 126.514 257.402 125.022 261.718C124.093 264.403 121.821 266.458 119.282 267.743C116.743 269.027 113.925 269.64 111.142 270.24L110.594 270.692C106.176 260.738 102.986 249.851 104.332 239.048Z" fill="#F8FAFC"/>
<path d="M122.815 214.29C116.802 221.012 113.065 229.454 112.134 238.417C111.9 240.343 111.971 242.294 112.345 244.198C112.769 246.041 113.681 247.736 114.984 249.109C116.174 250.413 117.542 251.61 118.393 253.18C118.817 253.99 119.064 254.88 119.119 255.792C119.174 256.704 119.034 257.618 118.711 258.472C117.959 260.623 116.478 262.376 114.97 264.04C113.295 265.888 111.527 267.78 110.815 270.23C110.729 270.527 110.272 270.376 110.358 270.079C111.597 265.818 115.743 263.397 117.72 259.559C118.642 257.768 119.03 255.688 118.165 253.798C117.408 252.144 115.999 250.909 114.783 249.599C113.492 248.279 112.544 246.663 112.023 244.893C111.553 243.014 111.407 241.07 111.59 239.142C111.935 234.796 112.962 230.53 114.635 226.502C116.518 221.895 119.177 217.643 122.497 213.93C122.703 213.7 123.02 214.061 122.815 214.29Z" fill="#F8FAFC"/>
<path d="M112.264 235.514C110.778 235.154 109.469 234.278 108.57 233.044C107.671 231.81 107.242 230.297 107.357 228.776C107.363 228.714 107.392 228.656 107.439 228.615C107.486 228.574 107.547 228.553 107.609 228.556C107.671 228.56 107.73 228.587 107.773 228.632C107.815 228.677 107.839 228.738 107.838 228.8C107.727 230.216 108.128 231.625 108.967 232.773C109.806 233.921 111.029 234.731 112.415 235.058C112.716 235.129 112.563 235.585 112.264 235.514Z" fill="#F8FAFC"/>
<path d="M114.294 248.527C116.978 246.928 118.959 244.379 119.842 241.387C119.929 241.091 120.386 241.241 120.299 241.538C119.374 244.649 117.307 247.298 114.51 248.955C114.244 249.113 114.029 248.684 114.294 248.527Z" fill="#F8FAFC"/>
<path d="M116.964 222.349C117.51 222.608 118.112 222.727 118.715 222.697C119.319 222.666 119.905 222.487 120.422 222.174C120.687 222.013 120.901 222.442 120.638 222.603C120.066 222.945 119.418 223.143 118.751 223.178C118.084 223.213 117.419 223.085 116.813 222.805C116.754 222.783 116.705 222.74 116.677 222.683C116.649 222.627 116.643 222.562 116.661 222.502C116.681 222.441 116.724 222.392 116.781 222.363C116.838 222.335 116.904 222.33 116.964 222.349Z" fill="#F8FAFC"/>
<path d="M154.186 233.381C154.024 233.486 153.862 233.591 153.699 233.701C151.525 235.127 149.47 236.728 147.555 238.487C147.405 238.621 147.255 238.758 147.109 238.896C142.541 243.182 138.811 248.278 136.107 253.923C135.033 256.171 134.132 258.496 133.412 260.88C132.418 264.172 131.602 267.821 129.634 270.514C129.432 270.797 129.212 271.067 128.977 271.323H111.189C111.149 271.303 111.108 271.287 111.068 271.267L110.357 271.299C110.386 271.174 110.418 271.044 110.447 270.919C110.463 270.846 110.483 270.773 110.5 270.7C110.512 270.651 110.524 270.603 110.532 270.558C110.536 270.542 110.54 270.526 110.544 270.514C110.552 270.469 110.565 270.429 110.573 270.388C110.751 269.663 110.935 268.938 111.125 268.214C111.125 268.209 111.125 268.209 111.128 268.205C112.519 262.668 114.562 257.316 117.216 252.259C117.297 252.109 117.378 251.955 117.467 251.805C118.696 249.567 120.107 247.433 121.684 245.423C122.551 244.326 123.474 243.273 124.448 242.269C126.969 239.679 129.884 237.501 133.084 235.814C139.463 232.453 146.849 231.166 153.667 233.219C153.841 233.271 154.012 233.324 154.186 233.381Z" fill="#F8FAFC"/>
<path d="M154.147 233.606C145.289 235.361 137.211 239.857 131.06 246.454C129.711 247.851 128.591 249.451 127.74 251.196C126.967 252.922 126.672 254.824 126.884 256.703C127.047 258.459 127.418 260.236 127.15 262.001C127 262.902 126.66 263.762 126.153 264.523C125.647 265.284 124.984 265.93 124.21 266.418C122.312 267.683 120.072 268.193 117.864 268.616C115.412 269.085 112.858 269.534 110.812 271.062C110.564 271.247 110.29 270.852 110.538 270.667C114.098 268.009 118.869 268.567 122.763 266.69C124.581 265.814 126.145 264.386 126.595 262.357C126.988 260.583 126.608 258.75 126.428 256.973C126.193 255.143 126.412 253.284 127.064 251.557C127.822 249.775 128.879 248.134 130.189 246.706C133.086 243.442 136.48 240.654 140.246 238.443C144.529 235.895 149.218 234.097 154.11 233.127C154.412 233.068 154.447 233.546 154.147 233.606Z" fill="#F8FAFC"/>
<path d="M132.915 244.213C131.946 243.033 131.429 241.548 131.456 240.022C131.483 238.497 132.053 237.031 133.063 235.886C133.268 235.655 133.638 235.962 133.432 236.194C132.489 237.258 131.959 238.624 131.937 240.044C131.914 241.465 132.402 242.847 133.311 243.94C133.508 244.178 133.112 244.45 132.915 244.213Z" fill="#F8FAFC"/>
<path d="M126.684 255.823C129.792 256.159 132.912 255.313 135.422 253.456C135.671 253.271 135.944 253.666 135.696 253.85C133.08 255.778 129.831 256.652 126.598 256.295C126.29 256.261 126.378 255.789 126.684 255.823Z" fill="#F8FAFC"/>
<path d="M144.611 236.526C144.89 237.06 145.299 237.517 145.799 237.855C146.299 238.194 146.876 238.403 147.477 238.463C147.786 238.494 147.698 238.966 147.391 238.935C146.728 238.865 146.091 238.634 145.537 238.261C144.984 237.889 144.53 237.387 144.216 236.799C144.181 236.746 144.168 236.682 144.18 236.62C144.191 236.558 144.226 236.503 144.276 236.465C144.329 236.429 144.393 236.416 144.456 236.427C144.519 236.438 144.574 236.474 144.611 236.526Z" fill="#F8FAFC"/>
<path d="M119.928 83.877H61.0799C59.2613 83.8749 57.5178 83.1531 56.2319 81.87C54.946 80.5869 54.2227 78.8472 54.2207 77.0325V45.0506C54.2227 43.236 54.9461 41.4963 56.232 40.2133C57.5179 38.9302 59.2613 38.2085 61.0799 38.2065H119.928C121.747 38.2085 123.49 38.9302 124.776 40.2133C126.062 41.4963 126.786 43.236 126.788 45.0506V77.0325C126.786 78.8471 126.062 80.5868 124.776 81.87C123.49 83.1531 121.747 83.8749 119.928 83.877Z" fill="#949494"/>
<path d="M209.772 83.877H150.924C149.105 83.8749 147.362 83.1531 146.076 81.87C144.79 80.5869 144.066 78.8472 144.064 77.0325V45.0506C144.066 43.236 144.79 41.4963 146.076 40.2133C147.362 38.9302 149.105 38.2085 150.924 38.2065H209.772C211.591 38.2085 213.334 38.9302 214.62 40.2133C215.906 41.4963 216.629 43.236 216.631 45.0506V77.0325C216.629 78.8471 215.906 80.5868 214.62 81.87C213.334 83.1531 211.591 83.8749 209.772 83.877Z" fill="#3F597B"/>
<path d="M299.618 83.877H240.769C238.951 83.8749 237.207 83.1531 235.921 81.87C234.635 80.5869 233.912 78.8472 233.91 77.0325V45.0506C233.912 43.236 234.635 41.4963 235.921 40.2133C237.207 38.9302 238.951 38.2085 240.769 38.2065H299.618C301.436 38.2085 303.18 38.9302 304.466 40.2133C305.752 41.4963 306.475 43.236 306.477 45.0506V77.0325C306.475 78.8471 305.752 80.5868 304.466 81.87C303.18 83.1531 301.436 83.8749 299.618 83.877Z" fill="#949494"/>
<path d="M119.928 155.137H61.0799C59.2613 155.134 57.5178 154.413 56.2319 153.13C54.946 151.846 54.2227 150.107 54.2207 148.292V116.31C54.2227 114.496 54.9461 112.756 56.232 111.473C57.5179 110.19 59.2613 109.468 61.0799 109.466H119.928C121.747 109.468 123.49 110.19 124.776 111.473C126.062 112.756 126.786 114.496 126.788 116.31V148.292C126.786 150.107 126.062 151.846 124.776 153.13C123.49 154.413 121.747 155.134 119.928 155.137Z" fill="#1A2338"/>
<path d="M209.772 155.137H150.924C149.105 155.134 147.362 154.413 146.076 153.13C144.79 151.846 144.066 150.107 144.064 148.292V116.31C144.066 114.496 144.79 112.756 146.076 111.473C147.362 110.19 149.105 109.468 150.924 109.466H209.772C211.591 109.468 213.334 110.19 214.62 111.473C215.906 112.756 216.629 114.496 216.631 116.31V148.292C216.629 150.107 215.906 151.846 214.62 153.13C213.334 154.413 211.591 155.134 209.772 155.137Z" fill="#949494"/>
<path d="M213.928 161.022C219.732 161.022 224.438 156.326 224.438 150.534C224.438 144.742 219.732 140.046 213.928 140.046C208.123 140.046 203.417 144.742 203.417 150.534C203.417 156.326 208.123 161.022 213.928 161.022Z" fill="#3F597B"/>
<path d="M218.292 149.653H214.718V146.087C214.718 145.977 214.697 145.868 214.654 145.766C214.612 145.664 214.55 145.572 214.472 145.494C214.394 145.416 214.301 145.354 214.199 145.312C214.097 145.27 213.988 145.248 213.877 145.248C213.767 145.248 213.658 145.27 213.556 145.312C213.454 145.354 213.361 145.416 213.283 145.494C213.205 145.572 213.143 145.664 213.101 145.766C213.058 145.868 213.037 145.977 213.037 146.087V149.653H209.463C209.353 149.653 209.243 149.675 209.141 149.717C209.039 149.759 208.946 149.821 208.868 149.899C208.79 149.977 208.728 150.069 208.686 150.171C208.644 150.273 208.622 150.382 208.622 150.492C208.622 150.602 208.644 150.712 208.686 150.813C208.728 150.915 208.79 151.008 208.868 151.086C208.946 151.163 209.039 151.225 209.141 151.267C209.243 151.31 209.353 151.331 209.463 151.331H213.037V154.897C213.037 155.007 213.058 155.116 213.101 155.218C213.143 155.32 213.205 155.413 213.283 155.49C213.361 155.568 213.454 155.63 213.556 155.672C213.658 155.714 213.767 155.736 213.877 155.736C214.1 155.736 214.314 155.648 214.472 155.49C214.63 155.333 214.718 155.12 214.718 154.897V151.331H218.292C218.402 151.331 218.512 151.31 218.614 151.267C218.716 151.225 218.808 151.163 218.886 151.086C218.965 151.008 219.026 150.915 219.069 150.813C219.111 150.712 219.133 150.602 219.133 150.492C219.133 150.382 219.111 150.273 219.069 150.171C219.026 150.069 218.965 149.977 218.886 149.899C218.808 149.821 218.716 149.759 218.614 149.717C218.512 149.675 218.402 149.653 218.292 149.653Z" fill="#F8FAFC"/>
<path d="M305.155 91.6009C310.96 91.6009 315.666 86.9054 315.666 81.1132C315.666 75.321 310.96 70.6255 305.155 70.6255C299.35 70.6255 294.645 75.321 294.645 81.1132C294.645 86.9054 299.35 91.6009 305.155 91.6009Z" fill="#3F597B"/>
<path d="M309.519 80.2325H305.946V76.6667C305.946 76.5565 305.924 76.4474 305.882 76.3456C305.84 76.2438 305.778 76.1513 305.7 76.0734C305.621 75.9955 305.529 75.9337 305.427 75.8915C305.325 75.8493 305.215 75.8276 305.105 75.8276C304.995 75.8276 304.885 75.8493 304.783 75.8915C304.681 75.9337 304.588 75.9955 304.51 76.0734C304.432 76.1513 304.37 76.2438 304.328 76.3456C304.286 76.4474 304.264 76.5565 304.264 76.6667V80.2325H300.69C300.58 80.2325 300.471 80.2542 300.369 80.2964C300.267 80.3386 300.174 80.4004 300.096 80.4783C300.018 80.5562 299.956 80.6487 299.914 80.7505C299.871 80.8523 299.85 80.9614 299.85 81.0716C299.85 81.1818 299.871 81.2909 299.914 81.3927C299.956 81.4945 300.018 81.587 300.096 81.6649C300.174 81.7428 300.267 81.8046 300.369 81.8468C300.471 81.889 300.58 81.9107 300.69 81.9107H304.264V85.4765C304.264 85.5866 304.286 85.6958 304.328 85.7976C304.37 85.8994 304.432 85.9919 304.51 86.0698C304.588 86.1477 304.681 86.2095 304.783 86.2517C304.885 86.2938 304.995 86.3155 305.105 86.3155C305.328 86.3155 305.542 86.2271 305.7 86.0698C305.857 85.9124 305.946 85.699 305.946 85.4765V81.9106H309.519C309.63 81.9106 309.739 81.8889 309.841 81.8468C309.943 81.8046 310.036 81.7428 310.114 81.6649C310.192 81.587 310.254 81.4945 310.296 81.3927C310.339 81.2909 310.36 81.1817 310.36 81.0716C310.36 80.9614 310.339 80.8523 310.296 80.7505C310.254 80.6487 310.192 80.5562 310.114 80.4782C310.036 80.4003 309.943 80.3385 309.841 80.2964C309.739 80.2542 309.63 80.2325 309.519 80.2325Z" fill="#F8FAFC"/>
<path d="M124.083 90.6814C129.888 90.6814 134.593 85.9859 134.593 80.1937C134.593 74.4015 129.888 69.7061 124.083 69.7061C118.278 69.7061 113.572 74.4015 113.572 80.1937C113.572 85.9859 118.278 90.6814 124.083 90.6814Z" fill="#3F597B"/>
<path d="M128.447 79.3131H124.874V75.7473C124.874 75.6371 124.852 75.528 124.81 75.4262C124.767 75.3244 124.705 75.2319 124.627 75.154C124.549 75.0761 124.457 75.0143 124.355 74.9721C124.252 74.9299 124.143 74.9082 124.033 74.9082C123.922 74.9082 123.813 74.9299 123.711 74.9721C123.609 75.0142 123.516 75.0761 123.438 75.154C123.36 75.2319 123.298 75.3244 123.256 75.4262C123.214 75.528 123.192 75.6371 123.192 75.7473V79.3131H119.618C119.508 79.3131 119.398 79.3348 119.296 79.377C119.194 79.4191 119.102 79.4809 119.024 79.5588C118.946 79.6368 118.884 79.7293 118.841 79.8311C118.799 79.9329 118.777 80.042 118.777 80.1521C118.777 80.3747 118.866 80.5881 119.024 80.7455C119.181 80.9028 119.395 80.9912 119.618 80.9912H123.192V84.557C123.192 84.6672 123.214 84.7763 123.256 84.8781C123.298 84.9799 123.36 85.0724 123.438 85.1503C123.516 85.2283 123.609 85.2901 123.711 85.3322C123.813 85.3744 123.922 85.3961 124.033 85.3961C124.143 85.3961 124.252 85.3744 124.355 85.3322C124.457 85.2901 124.549 85.2283 124.627 85.1503C124.705 85.0724 124.767 84.9799 124.81 84.8781C124.852 84.7763 124.874 84.6672 124.874 84.557V80.9912H128.447C128.558 80.9912 128.667 80.9695 128.769 80.9273C128.871 80.8852 128.964 80.8234 129.042 80.7454C129.12 80.6675 129.182 80.575 129.224 80.4732C129.266 80.3714 129.288 80.2623 129.288 80.1521C129.288 79.9296 129.2 79.7162 129.042 79.5588C128.884 79.4015 128.67 79.3131 128.447 79.3131Z" fill="#F8FAFC"/>
<path d="M202.774 65.7058C202.965 66.2845 203.028 66.8982 202.956 67.5036C202.884 68.109 202.681 68.6913 202.359 69.2096C202.037 69.7279 201.606 70.1695 201.095 70.5034C200.584 70.8372 200.005 71.0552 199.401 71.142L194.541 104.244L186.568 100.358L194.587 67.3167C194.508 66.2934 194.809 65.2769 195.431 64.4597C196.053 63.6425 196.954 63.0815 197.963 62.8829C198.972 62.6844 200.019 62.8621 200.906 63.3823C201.793 63.9026 202.457 64.7293 202.774 65.7058Z" fill="#FF900D"/>
<path d="M144.726 171.722C145.081 171.225 145.322 170.658 145.433 170.058C145.545 169.459 145.523 168.842 145.369 168.252C145.216 167.662 144.935 167.113 144.546 166.643C144.156 166.173 143.669 165.794 143.117 165.533L146.396 130.323L139.528 133.835L137.384 167.765C137.005 168.719 136.991 169.778 137.342 170.743C137.694 171.707 138.389 172.509 139.294 172.997C140.198 173.485 141.251 173.624 142.252 173.389C143.254 173.154 144.134 172.561 144.726 171.722Z" fill="#FF900D"/>
<path d="M149.418 153.913L178.887 152.782L180.587 122.246H146.584L149.418 153.913Z" fill="#FF900D"/>
<path d="M143.948 261.755L148.984 261.755L151.38 242.373H143.947L143.948 261.755Z" fill="#FF900D"/>
<path d="M142.699 259.276L150.66 258.802V262.205L158.228 267.421C158.602 267.678 158.883 268.048 159.032 268.477C159.18 268.905 159.187 269.37 159.051 269.803C158.916 270.236 158.646 270.614 158.28 270.883C157.914 271.151 157.472 271.296 157.017 271.296H147.54L145.906 267.93L145.269 271.296H141.695L142.699 259.276Z" fill="#272A33"/>
<path d="M166.347 261.755L171.383 261.755L173.778 242.373H166.346L166.347 261.755Z" fill="#FF900D"/>
<path d="M149.009 146.745C149.009 146.745 140.192 153.848 144.972 179.216C144.244 179.302 145.068 180.734 145.068 180.734L145.758 201.404L146.291 203.773L144.519 207.595L145.249 211.748L142.997 249.443L151.317 250.517L159.278 211.373L160.795 206.972L162.316 203.115L161.495 199.001L162.168 192.616L166.758 171.087L167.882 208.426L166.314 211.991L167.186 215.904L165.242 217.981L164.474 252.917L173.345 253.331L180.685 218.113L180.116 213.619L181.093 210.296V202.534L182.765 198.871L186.412 178.897C186.412 178.897 187.512 163.285 179.486 144.913L149.009 146.745Z" fill="#272A33"/>
<path d="M152.602 96.8674C152.602 96.8674 141.465 99.0652 139.546 108.542C137.627 118.02 136.393 139.466 136.393 139.466L136.813 142.452L147.586 144.945L154.462 114.895L152.602 96.8674Z" fill="#1A2338"/>
<path d="M178.019 100.066C178.019 100.066 179.147 98.4879 185.469 98.2445C185.73 98.2344 185.407 97.7192 185.407 97.7192L188.448 82.8914L198.58 88.4888L196.869 104.034L180.22 122.93L178.019 100.066Z" fill="#1A2338"/>
<path d="M171.703 144.271C166.933 144.271 159.753 143.746 148.944 142.145C148.248 142.04 147.604 141.716 147.105 141.22C146.607 140.723 146.28 140.081 146.173 139.387C145.82 139.015 145.591 138.544 145.516 138.037C145.44 137.53 145.524 137.013 145.754 136.555L145.764 136.535L145.519 136.247C145.14 135.803 144.917 135.247 144.885 134.665C144.853 134.083 145.013 133.506 145.34 133.024L141.993 109.129C141.653 106.756 142.173 104.34 143.459 102.315C144.746 100.291 146.713 98.791 149.009 98.0851L150.245 97.7012L154.918 91.6021L155.01 91.6031L170.012 91.8024L174.881 97.9713L182.75 99.8229L182.771 99.9425L184.598 110.477C185.548 115.956 183.369 118.111 180.587 122.93L181.404 136.462L181.774 137.133C181.98 137.505 182.048 137.937 181.969 138.354C181.889 138.771 181.666 139.147 181.337 139.417C181.586 140.125 181.603 140.893 181.386 141.611L181.193 142.246C181.194 142.264 181.142 142.522 180.727 142.837C179.977 143.405 177.826 144.271 171.703 144.271Z" fill="#1A2338"/>
<path d="M165.098 259.276L173.058 258.802V262.205L180.626 267.421C181 267.678 181.282 268.048 181.43 268.477C181.578 268.905 181.585 269.37 181.45 269.803C181.315 270.236 181.044 270.614 180.678 270.883C180.313 271.151 179.87 271.296 179.416 271.296H169.938L168.305 267.93L167.667 271.296H164.094L165.098 259.276Z" fill="#272A33"/>
<path d="M173.459 78.3108C174.499 71.9131 170.145 65.8851 163.734 64.8469C157.322 63.8088 151.281 68.1535 150.24 74.5512C149.2 80.9489 153.554 86.9769 159.966 88.0151C166.377 89.0532 172.419 84.7085 173.459 78.3108Z" fill="#FF900D"/>
<path d="M168.726 64.9639C164.416 62.0057 160.62 61.5551 157.501 62.3941C157.097 61.7702 156.53 61.268 155.862 60.9413C153.43 54.8267 146.029 51.1546 139.677 52.9396C133.285 54.7363 128.874 61.8019 130.077 68.3192C130.822 72.3589 133.37 75.857 134.395 79.8354C136.379 87.5367 131.539 96.3585 123.969 98.841C131.137 100.277 139.027 95.9083 141.599 89.0791C142.848 85.7621 142.923 82.1406 143.082 78.6007C143.123 76.1573 143.423 73.7252 143.977 71.3446C144.251 70.2766 144.639 69.2409 145.134 68.255C146.212 66.088 148.002 64.3553 150.205 63.346C150.008 63.9549 149.958 64.6019 150.061 65.2336C150.164 65.8653 150.415 66.4636 150.795 66.9791C149.114 69.0803 148.199 71.3527 148.199 72.7136C144.707 79.0822 149.701 84.5525 156.084 88.037C158.629 89.4341 161.569 89.9454 164.438 89.4903L164.705 88.3529L165.067 89.3775L166.275 92.8123C167.668 93.4848 169.049 94.222 170.418 95.0239C169.898 92.5866 169.477 90.1538 169.188 87.7752C168.787 84.5377 170.184 79.718 171.192 76.7869C171.817 74.9805 172.138 73.0833 172.142 71.1722V71.0887L173.123 74.2346L176.697 72.7136C176.032 68.9087 176.697 64.5892 168.726 64.9639Z" fill="#272A33"/>
<path d="M315.688 271.878H54.3115C54.1665 271.878 54.0276 271.82 53.9253 271.717C53.8231 271.615 53.7656 271.476 53.7656 271.331C53.7656 271.186 53.8231 271.048 53.9253 270.945C54.0276 270.842 54.1665 270.784 54.3115 270.784H315.688C315.833 270.784 315.972 270.842 316.074 270.945C316.176 271.048 316.234 271.186 316.234 271.331C316.234 271.476 316.176 271.615 316.074 271.717C315.972 271.82 315.833 271.878 315.688 271.878Z" fill="#949494"/>
<path d="M122.882 162.4C128.686 162.4 133.392 157.704 133.392 151.912C133.392 146.12 128.686 141.424 122.882 141.424C117.077 141.424 112.371 146.12 112.371 151.912C112.371 157.704 117.077 162.4 122.882 162.4Z" fill="#949494"/>
<path d="M281.024 145.885H244.159C243.02 145.883 241.928 145.431 241.122 144.627C240.317 143.824 239.864 142.734 239.862 141.597V121.562C239.864 120.425 240.317 119.336 241.122 118.532C241.928 117.728 243.02 117.276 244.159 117.275H281.024C282.164 117.276 283.256 117.728 284.061 118.532C284.867 119.336 285.32 120.425 285.321 121.562V141.597C285.32 142.734 284.867 143.824 284.061 144.627C283.256 145.431 282.164 145.883 281.024 145.885Z" fill="#1A2338"/>
<path d="M281.568 137.746C284.651 137.746 287.15 135.253 287.15 132.177C287.15 129.101 284.651 126.607 281.568 126.607C278.485 126.607 275.986 129.101 275.986 132.177C275.986 135.253 278.485 137.746 281.568 137.746Z" fill="#3F597B"/>
<path d="M283.886 131.709H281.988V129.816C281.988 129.757 281.977 129.699 281.954 129.645C281.932 129.591 281.899 129.542 281.858 129.501C281.816 129.459 281.767 129.426 281.713 129.404C281.659 129.382 281.601 129.37 281.542 129.37C281.423 129.37 281.31 129.417 281.226 129.501C281.142 129.584 281.095 129.698 281.095 129.816V131.709H279.198C279.079 131.709 278.966 131.756 278.882 131.84C278.798 131.923 278.751 132.037 278.751 132.155C278.751 132.213 278.763 132.271 278.785 132.325C278.807 132.38 278.84 132.429 278.882 132.47C278.923 132.511 278.972 132.544 279.027 132.567C279.081 132.589 279.139 132.601 279.198 132.601H281.095V134.494C281.095 134.553 281.107 134.611 281.129 134.665C281.152 134.719 281.185 134.768 281.226 134.809C281.268 134.851 281.317 134.883 281.371 134.906C281.425 134.928 281.483 134.94 281.542 134.94C281.66 134.94 281.774 134.893 281.858 134.809C281.941 134.726 281.988 134.612 281.988 134.494V132.601H283.886C284.005 132.601 284.118 132.554 284.202 132.47C284.286 132.386 284.333 132.273 284.333 132.155C284.333 132.096 284.321 132.038 284.299 131.984C284.276 131.93 284.243 131.881 284.202 131.84C284.161 131.798 284.111 131.766 284.057 131.743C284.003 131.721 283.945 131.709 283.886 131.709Z" fill="#F8FAFC"/>
<path d="M296.044 140.199H265.663C264.374 140.198 263.138 139.686 262.226 138.776C261.314 137.866 260.801 136.633 260.8 135.346V117.251C260.8 117.014 260.895 116.787 261.063 116.62C261.231 116.453 261.459 116.359 261.696 116.359C261.933 116.359 262.161 116.453 262.329 116.62C262.497 116.787 262.591 117.014 262.592 117.251V122.097L297.88 125.298C298.585 125.31 299.257 125.598 299.751 126.1C300.246 126.601 300.523 127.277 300.524 127.98C300.524 128.035 300.519 128.09 300.509 128.145L298.73 137.608C298.706 138.303 298.412 138.961 297.911 139.445C297.41 139.928 296.741 140.198 296.044 140.199ZM262.592 123.893V135.346C262.593 136.159 262.917 136.938 263.493 137.512C264.068 138.087 264.849 138.41 265.663 138.411H296.044C296.281 138.411 296.509 138.316 296.677 138.149C296.845 137.981 296.94 137.754 296.94 137.517C296.94 137.462 296.945 137.406 296.955 137.352L298.729 127.911C298.712 127.687 298.61 127.477 298.444 127.324C298.279 127.171 298.062 127.086 297.836 127.086C297.809 127.086 297.782 127.085 297.755 127.082L262.592 123.893Z" fill="#3F597B"/>
<path d="M257.59 148.544C258.415 148.544 259.083 147.877 259.083 147.054C259.083 146.231 258.415 145.563 257.59 145.563C256.765 145.563 256.097 146.231 256.097 147.054C256.097 147.877 256.765 148.544 257.59 148.544Z" fill="#3F597B"/>
<path d="M294.849 148.544C295.674 148.544 296.342 147.877 296.342 147.054C296.342 146.231 295.674 145.563 294.849 145.563C294.024 145.563 293.355 146.231 293.355 147.054C293.355 147.877 294.024 148.544 294.849 148.544Z" fill="#3F597B"/>
<path d="M296.343 145.564H256.396C256.158 145.564 255.93 145.469 255.762 145.302C255.594 145.134 255.5 144.907 255.5 144.669C255.5 144.432 255.594 144.205 255.762 144.037C255.93 143.87 256.158 143.775 256.396 143.775H296.343C296.58 143.775 296.808 143.87 296.976 144.037C297.144 144.205 297.239 144.432 297.239 144.669C297.239 144.907 297.144 145.134 296.976 145.302C296.808 145.469 296.58 145.564 296.343 145.564Z" fill="#3F597B"/>
<path d="M264.085 117.847H256.32C256.082 117.846 255.855 117.752 255.688 117.584C255.52 117.417 255.426 117.19 255.426 116.953C255.426 116.716 255.52 116.489 255.688 116.321C255.855 116.154 256.082 116.059 256.32 116.059H264.085C264.323 116.059 264.55 116.154 264.718 116.321C264.885 116.489 264.979 116.716 264.979 116.953C264.979 117.19 264.885 117.417 264.718 117.584C264.55 117.752 264.323 117.846 264.085 117.847Z" fill="#3F597B"/>
<path d="M270.315 145.108C270.101 145.109 269.894 145.032 269.731 144.892L263.842 139.842C263.752 139.766 263.679 139.672 263.625 139.568C263.572 139.463 263.54 139.349 263.531 139.231C263.522 139.114 263.536 138.996 263.573 138.885C263.61 138.773 263.668 138.669 263.745 138.58C263.822 138.491 263.915 138.418 264.02 138.365C264.126 138.312 264.24 138.28 264.358 138.271C264.475 138.263 264.593 138.277 264.705 138.314C264.817 138.351 264.921 138.409 265.01 138.486L270.899 143.536C271.038 143.655 271.137 143.814 271.183 143.991C271.229 144.167 271.219 144.354 271.155 144.525C271.092 144.696 270.977 144.844 270.827 144.948C270.677 145.053 270.498 145.108 270.315 145.108Z" fill="#3F597B"/>
<path d="M271.556 139.65C271.439 139.65 271.322 139.627 271.213 139.582C271.105 139.537 271.006 139.471 270.923 139.388C270.839 139.305 270.773 139.206 270.728 139.098C270.683 138.99 270.66 138.873 270.66 138.756V124.404C270.66 124.166 270.755 123.939 270.923 123.771C271.091 123.604 271.319 123.51 271.556 123.51C271.794 123.51 272.022 123.604 272.19 123.771C272.358 123.939 272.452 124.166 272.452 124.404V138.756C272.452 138.873 272.429 138.989 272.384 139.098C272.339 139.206 272.273 139.305 272.19 139.388C272.107 139.471 272.008 139.537 271.899 139.582C271.79 139.627 271.674 139.65 271.556 139.65Z" fill="#3F597B"/>
<path d="M290.484 139.65C290.366 139.65 290.25 139.627 290.141 139.582C290.032 139.537 289.934 139.471 289.85 139.388C289.767 139.305 289.701 139.206 289.656 139.098C289.611 138.99 289.588 138.873 289.588 138.756V125.596C289.588 125.359 289.683 125.132 289.851 124.965C290.019 124.798 290.247 124.704 290.484 124.704C290.721 124.704 290.949 124.798 291.117 124.965C291.285 125.132 291.379 125.359 291.38 125.596V138.756C291.38 138.873 291.357 138.989 291.312 139.098C291.267 139.206 291.201 139.305 291.118 139.388C291.034 139.471 290.936 139.537 290.827 139.582C290.718 139.627 290.602 139.65 290.484 139.65Z" fill="#3F597B"/>
</g>
<defs>
<clipPath id="clip0_2025_1234">
<rect width="370" height="271.878" fill="white"/>
</clipPath>
</defs>
</svg>
