<svg width="93" height="91" viewBox="0 0 93 91" fill="none" xmlns="http://www.w3.org/2000/svg">
<path d="M17.2928 33.7147C15.7456 30.2815 14.3454 21.7671 21.122 16.1448C24.2783 23.512 19.923 30.9681 17.2928 33.7147Z" fill="#3F597B"/>
<path d="M19.4976 36.1381C21.6897 33.112 28.2586 27.8605 36.1754 31.5134C31.3952 37.8556 23.0488 37.2936 19.4976 36.1381Z" fill="#3F597B"/>
<path d="M12.187 55.1621C13.4635 44.499 13.9276 37.471 33.6542 18.8106C26.1504 23.7786 11.1891 37.4468 10.4465 51.4058L12.187 55.1621Z" fill="#3F597B"/>
<path d="M27.8281 26.4444C30.4776 23.4768 37.5059 18.6345 44.4228 23.0055C42.4211 25.6614 36.2998 30.0676 27.8281 26.4444Z" fill="#3F597B"/>
<path d="M35.5109 17.4774C36.2845 14.0442 40.4309 6.20839 49.4356 7.17776C49.4356 10.5706 43.4944 18.059 35.5109 17.4774Z" fill="#3F597B"/>
<path d="M25.9958 23.4151C25.3383 19.4164 25.903 10.6436 33.4223 7.54157C34.2346 10.8132 33.8866 18.5682 25.9958 23.4151Z" fill="#3F597B"/>
<path d="M59.2616 14.5411C57.6512 18.2059 54.5586 23.4653 43.1962 30.8431C32.6866 37.6672 26.3579 44.6168 24.9142 48.121C23.4705 51.6252 17.8211 63.068 26.6875 72.2513C35.554 81.4345 56.6746 80.9421 68.2793 80.3509C68.2793 80.3509 68.7076 66.7092 55.5162 63.068C42.3248 59.4268 41.7468 62.1834 38.7277 58.645C35.7086 55.1066 38.8485 50.8099 39.8148 48.788C42.3109 50.515 48.3902 54.1714 52.7383 54.9802C53.2214 54.9802 55.033 55.1066 55.5162 52.2C55.5162 51.4418 55.1539 49.5462 56.6033 49.0407C57.7628 48.6363 57.7703 47.777 57.569 47.2715C57.569 47.2715 53.8248 45.8814 54.6708 45.755C55.5168 45.6287 59.1392 46.3869 59.1391 45.3759C59.1391 44.3649 58.342 41.5342 60.4677 41.8375C62.5935 42.1408 63.1249 41.1214 63.1249 40.5738C63.1249 40.5738 59.5015 32.7387 60.83 28.8212C62.1586 24.9036 62.4516 19.3938 59.2616 14.5411Z" fill="#3F597B"/>
<path fill-rule="evenodd" clip-rule="evenodd" d="M45.7498 90.1236C37.0203 90.1236 29.5098 88.7629 22.5266 84.9675C15.5434 81.1005 10.0243 75.7296 5.96951 68.8548C1.98983 61.9801 0 54.1386 0 45.3303C0 36.5221 1.98983 28.6806 5.96951 21.8058C10.0243 14.9311 15.5434 9.59599 22.5266 5.80056C29.5098 1.93352 37.3566 0 46.0668 0C54.7771 0 62.6239 1.93352 69.6071 5.80056C76.5903 9.59599 82.0717 14.9311 86.0514 21.8058C90.0311 28.6806 92.0209 36.5221 92.0209 45.3303C92.0209 54.1386 90.0311 61.9801 86.0514 68.8548C82.0717 75.7296 76.5903 81.1005 69.6071 84.9675C62.6239 88.7629 54.4793 90.1236 45.7498 90.1236ZM43.1962 30.8431C54.5586 23.4653 57.6512 18.2059 59.2616 14.5411C62.4516 19.3938 62.1586 24.9036 60.83 28.8212C59.5015 32.7387 63.1249 40.5738 63.1249 40.5738C63.1249 41.1214 62.5935 42.1408 60.4677 41.8375C58.342 41.5342 59.1391 44.3649 59.1391 45.3759C59.1392 46.3869 55.5168 45.6287 54.6708 45.755C53.8248 45.8814 57.569 47.2715 57.569 47.2715C57.7703 47.777 57.7628 48.6363 56.6033 49.0407C55.1539 49.5462 55.5162 51.4418 55.5162 52.2C55.033 55.1066 53.2214 54.9802 52.7383 54.9802C48.3902 54.1714 42.3109 50.515 39.8148 48.788C38.8485 50.8099 35.7086 55.1066 38.7277 58.645C41.7468 62.1834 42.3248 59.4268 55.5162 63.068C68.7076 66.7092 68.2793 80.3509 68.2793 80.3509C56.6746 80.9421 35.554 81.4345 26.6875 72.2513C17.8211 63.068 23.4705 51.6252 24.9142 48.121C26.3579 44.6168 32.6866 37.6672 43.1962 30.8431ZM33.6542 18.8106C13.9276 37.471 13.4635 44.499 12.187 55.1621L10.4465 51.4058C11.1891 37.4468 26.1504 23.7786 33.6542 18.8106ZM17.2928 33.7147C15.7456 30.2815 14.3454 21.7671 21.122 16.1448C24.2783 23.512 19.923 30.9681 17.2928 33.7147ZM25.9958 23.4151C25.3383 19.4164 25.903 10.6436 33.4223 7.54157C34.2346 10.8132 33.8866 18.5682 25.9958 23.4151ZM35.5109 17.4774C36.2845 14.0442 40.4309 6.20839 49.4356 7.17776C49.4356 10.5706 43.4944 18.059 35.5109 17.4774ZM27.8281 26.4444C30.4776 23.4768 37.5059 18.6345 44.4228 23.0055C42.4211 25.6614 36.2998 30.0676 27.8281 26.4444ZM19.4976 36.1381C21.6897 33.112 28.2586 27.8605 36.1754 31.5134C31.3952 37.8556 23.0488 37.2936 19.4976 36.1381Z" fill="#F8FAFC"/>
</svg>
