<svg width="671" height="91" viewBox="0 0 671 91" fill="none" xmlns="http://www.w3.org/2000/svg">
<path d="M0 88.5876L29.056 13.8357C30.7627 9.31301 32.9387 5.89962 35.584 3.59562C38.3147 1.20629 41.6427 0.0116366 45.568 0.0116366C49.3227 0.0116366 52.5227 1.20629 55.168 3.59562C57.8987 5.89962 60.1173 9.31301 61.824 13.8357L90.88 88.5876H68.352L43.008 18.4437H47.488L22.4 88.5876H0ZM21.76 72.7157V54.9237H70.016V72.7157H21.76Z" fill="#F8FAFC"/>
<path d="M100.037 88.5876V15.4997C100.037 10.5503 101.232 6.79564 103.621 4.23564C106.096 1.67564 109.296 0.395609 113.221 0.395609C116.122 0.395609 118.768 1.16362 121.157 2.69963C123.546 4.15029 125.936 6.62503 128.325 10.1237L167.237 66.8277L158.277 67.4677V1.54765H178.117V88.5876H157.637L112.197 23.1797L119.877 22.4117V88.5876H100.037Z" fill="#F8FAFC"/>
<path d="M216.943 88.5876V1.54765H237.807V88.5876H216.943ZM187.631 20.1077V1.54765H267.119V20.1077H187.631Z" fill="#F8FAFC"/>
<path d="M276.662 88.5876V1.54765H297.526V88.5876H276.662Z" fill="#F8FAFC"/>
<path d="M356.905 90.1236C346.75 90.1236 338.217 88.2889 331.305 84.6195C324.478 80.9502 319.273 75.8303 315.689 69.2597C312.105 62.689 310.313 55.009 310.313 46.2197C310.313 37.5157 312.105 29.7077 315.689 22.7957C319.358 15.7984 324.692 10.2516 331.689 6.15562C338.772 2.05962 347.476 0.0116366 357.801 0.0116366C362.238 -0.0736956 366.377 0.310282 370.217 1.16361C374.057 1.93161 377.556 3.04095 380.713 4.49162C383.87 5.94228 386.473 7.77704 388.521 9.99571C389.801 11.361 390.825 12.8544 391.593 14.4757C392.361 16.0117 392.745 17.6757 392.745 19.4677C392.745 22.2837 391.892 24.4597 390.185 25.9957C388.564 27.5317 386.345 28.2997 383.529 28.2997C381.31 28.2997 379.348 27.7877 377.641 26.7637C376.02 25.7397 374.313 24.5877 372.521 23.3077C370.729 22.0277 368.596 20.8757 366.121 19.8517C363.646 18.8277 360.489 18.3157 356.649 18.3157C351.273 18.3157 346.793 19.425 343.209 21.6437C339.625 23.8623 336.894 27.0197 335.017 31.1157C333.225 35.1263 332.329 39.9477 332.329 45.5797C332.329 51.2117 333.225 56.033 335.017 60.0437C336.894 64.0543 339.668 67.1263 343.337 69.2597C347.006 71.3077 351.529 72.3317 356.905 72.3317C362.964 72.3317 367.529 70.9663 370.601 68.2357C373.673 65.4197 375.252 61.4943 375.337 56.4596H354.601V40.2037H397.481C398.59 57.185 395.689 69.7716 388.777 77.9636C381.865 86.0703 371.241 90.1236 356.905 90.1236Z" fill="#F8FAFC"/>
<path d="M509.537 88.5876V15.4997C509.537 10.5503 510.732 6.79564 513.121 4.23564C515.596 1.67564 518.796 0.395609 522.721 0.395609C525.622 0.395609 528.268 1.16362 530.657 2.69963C533.046 4.15029 535.436 6.62503 537.825 10.1237L576.737 66.8277L567.777 67.4677V1.54765H587.617V88.5876H567.137L521.697 23.1797L529.377 22.4117V88.5876H509.537Z" fill="#F8FAFC"/>
<path d="M604.787 88.5876V1.54765H625.651V88.5876H604.787ZM621.299 88.5876V70.6677H670.835V88.5876H621.299ZM613.875 51.9796V34.1877H655.859C658.846 34.1877 661.235 34.9557 663.027 36.4917C664.819 37.9424 665.715 40.161 665.715 43.1477C665.715 45.9637 664.819 48.1396 663.027 49.6756C661.235 51.2116 658.846 51.9796 655.859 51.9796H613.875ZM621.299 19.4677V1.54765H670.835V19.4677H621.299Z" fill="#F8FAFC"/>
<path d="M425.118 34.3523C423.599 30.981 422.224 22.62 428.878 17.099C431.978 24.3335 427.701 31.6553 425.118 34.3523Z" fill="#3F597B"/>
<path d="M427.283 36.7321C429.436 33.7605 435.886 28.6036 443.661 32.1908C438.966 38.4186 430.771 37.8668 427.283 36.7321Z" fill="#3F597B"/>
<path d="M420.104 55.4134C421.358 44.9424 421.814 38.041 441.185 19.7167C433.816 24.5953 419.124 38.0172 418.395 51.7247L420.104 55.4134Z" fill="#3F597B"/>
<path d="M435.464 27.213C438.065 24.2989 444.967 19.5438 451.759 23.8361C449.794 26.4442 443.783 30.7709 435.464 27.213Z" fill="#3F597B"/>
<path d="M443.008 18.4075C443.768 15.0362 447.839 7.34157 456.682 8.29348C456.682 11.6252 450.848 18.9787 443.008 18.4075Z" fill="#3F597B"/>
<path d="M433.664 24.2383C433.019 20.3117 433.573 11.6969 440.957 8.65074C441.755 11.8634 441.413 19.4787 433.664 24.2383Z" fill="#3F597B"/>
<path d="M466.331 15.5242C464.75 19.123 461.713 24.2876 450.555 31.5325C440.235 38.2337 434.02 45.0581 432.602 48.4991C431.185 51.9402 425.637 63.1769 434.344 72.1947C443.05 81.2125 463.79 80.729 475.186 80.1485C475.186 80.1485 475.607 66.7525 462.653 63.1769C449.699 59.6013 449.132 62.3082 446.167 58.8335C443.202 55.3589 446.286 51.1396 447.234 49.1541C449.686 50.8501 455.655 54.4406 459.925 55.2348C460.4 55.2348 462.178 55.3589 462.653 52.5047C462.653 51.7601 462.297 49.8987 463.72 49.4023C464.859 49.0052 464.866 48.1613 464.669 47.6649C464.669 47.6649 460.992 46.2999 461.823 46.1758C462.654 46.0517 466.211 46.7963 466.211 45.8035C466.211 44.8107 465.428 42.031 467.515 42.3288C469.603 42.6267 470.125 41.6256 470.125 41.0879C470.125 41.0879 466.566 33.394 467.871 29.547C469.176 25.7 469.463 20.2895 466.331 15.5242Z" fill="#3F597B"/>
<path fill-rule="evenodd" clip-rule="evenodd" d="M453.062 89.745C444.49 89.745 437.115 88.4089 430.258 84.6819C423.4 80.8845 417.981 75.6104 413.999 68.8595C410.091 62.1086 408.137 54.4083 408.137 45.7588C408.137 37.1092 410.091 29.4089 413.999 22.658C417.981 15.9071 423.4 10.6682 430.258 6.94109C437.115 3.14372 444.82 1.24503 453.374 1.24503C461.927 1.24503 469.633 3.14372 476.49 6.94109C483.347 10.6682 488.73 15.9071 492.638 22.658C496.546 29.4089 498.5 37.1092 498.5 45.7588C498.5 54.4083 496.546 62.1086 492.638 68.8595C488.73 75.6104 483.347 80.8845 476.49 84.6819C469.633 88.4089 461.635 89.745 453.062 89.745ZM450.555 31.5325C461.713 24.2876 464.75 19.123 466.331 15.5242C469.463 20.2895 469.176 25.7 467.871 29.547C466.566 33.394 470.125 41.0879 470.125 41.0879C470.125 41.6256 469.603 42.6267 467.515 42.3288C465.428 42.031 466.211 44.8107 466.211 45.8035C466.211 46.7963 462.654 46.0517 461.823 46.1758C460.992 46.2999 464.669 47.6649 464.669 47.6649C464.866 48.1613 464.859 49.0052 463.72 49.4023C462.297 49.8987 462.653 51.7601 462.653 52.5047C462.178 55.3589 460.4 55.2348 459.925 55.2348C455.655 54.4406 449.686 50.8501 447.234 49.1541C446.286 51.1396 443.202 55.3589 446.167 58.8335C449.132 62.3082 449.699 59.6013 462.653 63.1769C475.607 66.7525 475.186 80.1485 475.186 80.1485C463.79 80.729 443.05 81.2125 434.344 72.1947C425.637 63.1769 431.185 51.9402 432.602 48.4991C434.02 45.0581 440.235 38.2337 450.555 31.5325ZM441.185 19.7167C421.814 38.041 421.358 44.9424 420.104 55.4134L418.395 51.7247C419.124 38.0172 433.816 24.5953 441.185 19.7167ZM425.118 34.3523C423.599 30.981 422.224 22.62 428.878 17.099C431.978 24.3335 427.701 31.6553 425.118 34.3523ZM433.664 24.2383C433.019 20.3117 433.573 11.6969 440.957 8.65074C441.755 11.8634 441.413 19.4787 433.664 24.2383ZM443.008 18.4075C443.768 15.0362 447.839 7.34157 456.682 8.29348C456.682 11.6252 450.848 18.9787 443.008 18.4075ZM435.464 27.213C438.065 24.2989 444.967 19.5438 451.759 23.8361C449.794 26.4442 443.783 30.7709 435.464 27.213ZM427.283 36.7321C429.436 33.7605 435.886 28.6036 443.661 32.1908C438.966 38.4186 430.771 37.8668 427.283 36.7321Z" fill="#F8FAFC"/>
</svg>
